# xmcd
#
# Track frame offsets:
#	150
#	22841
#	41122
#	62919
#	83298
#	98853
#	123274
#	139211
#	160162
#	176188
#	188762
#	204337
#	222913
#	241225
#
# Disc length: 3456 seconds
#
# Revision: 1
# Processed by: cddbd v1.5.1PL2 Copyright (c) Steve Scherf et al.
# Submitted via: audiograbber 1.80
#
DISCID=b90d7e0e
DTITLE=Kenny Chesney - When The Sun Goes Down
DYEAR=1900
DGENRE=
TTITLE0=There Goes My Life
TTITLE1=I Go Back
TTITLE2=When The Sun Goes Down
TTITLE3=The Woman With You
TTITLE4=Some People Change
TTITLE5=Anything But Mine
TTITLE6=Keg In The Closet
TTITLE7=When I Think About Everything
TTITLE8=Being Drunks A Lot Like Loving
TTITLE9=Outta Here
TTITLE10=Old Blue Chair
TTITLE11=Like Those SOngs
TTITLE12=What I Need To Do
TTITLE13=Please Come To Boston
EXTD=
EXTT0=
EXTT1=
EXTT2=
EXTT3=
EXTT4=
EXTT5=
EXTT6=
EXTT7=
EXTT8=
EXTT9=
EXTT10=
EXTT11=
EXTT12=
EXTT13=
PLAYORDER=
